<svg width="30" height="23" viewBox="0 0 30 23" fill="none" xmlns="http://www.w3.org/2000/svg">
<path d="M28.125 0.258301H1.875C1.37772 0.258301 0.900805 0.455845 0.549175 0.807475C0.197544 1.15911 0 1.63602 0 2.1333V20.8833C0 21.3806 0.197544 21.8575 0.549175 22.2091C0.900805 22.5608 1.37772 22.7583 1.875 22.7583H28.125C28.6223 22.7583 29.0992 22.5608 29.4508 22.2091C29.8025 21.8575 30 21.3806 30 20.8833V2.1333C30 1.63602 29.8025 1.15911 29.4508 0.807475C29.0992 0.455845 28.6223 0.258301 28.125 0.258301ZM26.6812 20.8833H3.43125L9.99375 14.0958L8.64375 12.7927L1.875 19.7958V3.5583L13.5281 15.1552C13.8794 15.5044 14.3547 15.7004 14.85 15.7004C15.3453 15.7004 15.8206 15.5044 16.1719 15.1552L28.125 3.26768V19.6739L21.225 12.7739L19.9031 14.0958L26.6812 20.8833ZM3.10312 2.1333H26.6062L14.85 13.8239L3.10312 2.1333Z" fill="#FFAF37"/>
</svg>
