<svg width="30" height="41" viewBox="0 0 30 41" fill="none" xmlns="http://www.w3.org/2000/svg">
<path d="M14.9999 24.1545C19.1361 24.1545 22.4998 20.5435 22.4998 16.1031C22.4998 11.6628 19.1361 8.05176 14.9999 8.05176C10.8637 8.05176 7.5 11.6628 7.5 16.1031C7.5 20.5435 10.8637 24.1545 14.9999 24.1545ZM14.9999 12.0774C17.068 12.0774 18.7499 13.883 18.7499 16.1031C18.7499 18.3233 17.068 20.1288 14.9999 20.1288C12.9318 20.1288 11.25 18.3233 11.25 16.1031C11.25 13.883 12.9318 12.0774 14.9999 12.0774Z" fill="#FFAF37"/>
<path d="M13.9125 39.8825C14.2298 40.1258 14.6101 40.2566 15 40.2566C15.3899 40.2566 15.7702 40.1258 16.0875 39.8825C16.6575 39.4498 30.0542 29.0655 29.9998 16.1028C29.9998 7.2241 23.2705 0 15 0C6.72947 0 0.000165069 7.2241 0.000165069 16.0927C-0.0542093 29.0655 13.3425 39.4498 13.9125 39.8825ZM15 4.02569C21.2043 4.02569 26.2499 9.44226 26.2499 16.1128C26.2893 25.0458 18.0225 33.067 15 35.6978C11.9794 33.065 3.71075 25.0418 3.75012 16.1028C3.75012 9.44226 8.79569 4.02569 15 4.02569Z" fill="#FFAF37"/>
</svg>
