<svg width="30" height="31" viewBox="0 0 30 31" fill="none" xmlns="http://www.w3.org/2000/svg">
<path d="M6.77189 27.9145L7.33608 28.1958C9.68725 29.602 12.3203 30.2583 14.9535 30.2583C23.2291 30.2583 30 23.5083 30 15.2583C30 11.3209 28.4012 7.47707 25.5801 4.66453C22.7589 1.85199 18.9971 0.258301 14.9535 0.258301C6.67792 0.258301 -0.0931313 7.00829 0.000969107 15.3521C0.000969107 18.1645 0.847334 20.8834 2.2579 23.227L2.63403 23.7896L1.1295 29.3209L6.77189 27.9145Z" fill="#00E676"/>
<path d="M24.0947 6.02212C21.6975 3.55449 18.3838 2.21484 14.9995 2.21484C7.80807 2.21484 2.0266 8.06676 2.09705 15.1878C2.09705 17.444 2.7316 19.6297 3.78925 21.6038L1.95605 28.3018L8.79507 26.5392C10.6987 27.5968 12.8138 28.0904 14.9291 28.0904C22.0501 28.0904 27.8316 22.2383 27.8316 15.1174C27.8316 11.6626 26.4919 8.41931 24.0948 6.02212H24.0947ZM14.9995 25.9047C13.0959 25.9047 11.1923 25.4113 9.57061 24.4242L9.14762 24.2126L5.05834 25.2702L6.11588 21.2514L5.83388 20.8283C2.7316 15.8225 4.21224 9.19486 9.28861 6.09257C14.365 2.99039 20.922 4.47103 24.0243 9.5474C27.1265 14.6238 25.6458 21.1808 20.5696 24.2831C18.9478 25.3406 16.9737 25.9046 14.9995 25.9046V25.9047ZM21.204 18.0787L20.4285 17.7262C20.4285 17.7262 19.3005 17.2326 18.5954 16.8801C18.5248 16.8801 18.4544 16.8095 18.3838 16.8095C18.1723 16.8095 18.0313 16.8801 17.8903 16.9506C17.8903 16.9506 17.8198 17.0211 16.8327 18.1492C16.7622 18.2902 16.6212 18.3607 16.4802 18.3607H16.4096C16.3392 18.3607 16.1982 18.2902 16.1276 18.2197L15.7751 18.0787C14.9995 17.7262 14.2945 17.3031 13.7304 16.7391C13.5894 16.5981 13.3779 16.4571 13.2369 16.3161C12.7433 15.8225 12.2498 15.2584 11.8974 14.6239L11.8268 14.4829C11.7564 14.4123 11.7564 14.3419 11.6858 14.2009C11.6858 14.0599 11.6858 13.9189 11.7564 13.8483C11.7564 13.8483 12.0384 13.4958 12.2498 13.2843C12.3909 13.1432 12.4613 12.9318 12.6023 12.7908C12.7433 12.5792 12.8139 12.2972 12.7433 12.0857C12.6729 11.7331 11.8268 9.8295 11.6154 9.40651C11.4743 9.19496 11.3334 9.12451 11.1218 9.05396H10.3463C10.2052 9.05396 10.0643 9.12451 9.92316 9.12451L9.85261 9.19496C9.71161 9.26551 9.57061 9.40651 9.42961 9.47695C9.28861 9.61805 9.21806 9.75895 9.07707 9.90005C8.58352 10.5346 8.30152 11.3101 8.30152 12.0857C8.30152 12.6497 8.44252 13.2138 8.65407 13.7073L8.72462 13.9189C9.35917 15.2584 10.2052 16.4571 11.3334 17.5146L11.6154 17.7966C11.8268 18.0082 12.0384 18.1492 12.1793 18.3606C13.66 19.6298 15.3521 20.5463 17.2557 21.0399C17.4673 21.1103 17.7493 21.1103 17.9608 21.1809H18.6658C19.0184 21.1809 19.4414 21.0399 19.7235 20.8989C19.9349 20.7579 20.0759 20.7579 20.2169 20.6169L20.358 20.4758C20.499 20.3348 20.64 20.2643 20.781 20.1233C20.922 19.9823 21.063 19.8413 21.1335 19.7002C21.2745 19.4182 21.345 19.0657 21.4155 18.7133V18.2197C21.4155 18.2197 21.345 18.1492 21.204 18.0787Z" fill="white"/>
</svg>
