<svg width="30" height="30" viewBox="0 0 30 30" fill="none" xmlns="http://www.w3.org/2000/svg">
<path d="M6 28.0156H6.01562V28V9.5V9.48438H6H2H1.98438V9.5V28V28.0156H2H6ZM0.377585 7.87759C0.608997 7.64617 0.922752 7.516 1.25002 7.51562L6.74999 7.51562C7.07725 7.516 7.391 7.64618 7.62241 7.87759C7.85383 8.109 7.984 8.42275 7.98438 8.75002V28.75C7.984 29.0772 7.85383 29.391 7.62241 29.6224C7.391 29.8538 7.07725 29.984 6.75 29.9844H1.25002C0.922752 29.984 0.608997 29.8538 0.377585 29.6224C0.146173 29.391 0.0160007 29.0772 0.015625 28.75L0.015625 8.75001C0.0160031 8.42275 0.146175 8.109 0.377585 7.87759Z" fill="#FFAF37" stroke="#FFAF37" stroke-width="0.03125"/>
<path d="M17 28.0156H17.0156V28V16V15.9844H17H13H12.9844V16V28V28.0156H13H17ZM11.3776 14.3776C11.609 14.1462 11.9228 14.016 12.25 14.0156L17.75 14.0156C18.0773 14.016 18.391 14.1462 18.6224 14.3776C18.8538 14.609 18.984 14.9228 18.9844 15.25V28.75C18.984 29.0772 18.8538 29.391 18.6224 29.6224C18.391 29.8538 18.0772 29.984 17.75 29.9844H12.25C11.9228 29.984 11.609 29.8538 11.3776 29.6224C11.1462 29.391 11.016 29.0772 11.0156 28.75L11.0156 15.25C11.016 14.9227 11.1462 14.609 11.3776 14.3776Z" fill="#FFAF37" stroke="#FFAF37" stroke-width="0.03125"/>
<path d="M28 28.0156H28.0156V28V2V1.98438H28H24H23.9844V2V28V28.0156H24H28ZM22.3776 0.377585C22.609 0.146173 22.9228 0.0160007 23.25 0.015625L28.75 0.015625C29.0773 0.0160031 29.391 0.146175 29.6224 0.377585C29.8538 0.608997 29.984 0.922752 29.9844 1.25002V28.75C29.984 29.0772 29.8538 29.391 29.6224 29.6224C29.391 29.8538 29.0772 29.984 28.75 29.9844H23.25C22.9228 29.984 22.609 29.8538 22.3776 29.6224C22.1462 29.391 22.016 29.0772 22.0156 28.75L22.0156 1.25001C22.016 0.922746 22.1462 0.608995 22.3776 0.377585Z" fill="#FFAF37" stroke="#FFAF37" stroke-width="0.03125"/>
</svg>
