<svg width="21" height="27" viewBox="0 0 21 27" fill="none" xmlns="http://www.w3.org/2000/svg">
<path d="M10.8613 16.1624C13.6187 16.1624 15.8612 13.7551 15.8612 10.7948C15.8612 7.83461 13.6187 5.42725 10.8613 5.42725C8.1038 5.42725 5.86133 7.83461 5.86133 10.7948C5.86133 13.7551 8.1038 16.1624 10.8613 16.1624ZM10.8613 8.11104C12.24 8.11104 13.3612 9.31472 13.3612 10.7948C13.3612 12.2749 12.24 13.4786 10.8613 13.4786C9.48254 13.4786 8.3613 12.2749 8.3613 10.7948C8.3613 9.31472 9.48254 8.11104 10.8613 8.11104Z" fill="#FFAF37"/>
<path d="M10.1363 26.6479C10.3479 26.8101 10.6014 26.8973 10.8613 26.8973C11.1213 26.8973 11.3748 26.8101 11.5863 26.6479C11.9663 26.3594 20.8975 19.4366 20.8612 10.7947C20.8612 4.87564 16.375 0.0595703 10.8613 0.0595703C5.34764 0.0595703 0.861438 4.87564 0.861438 10.788C0.825189 19.4366 9.75634 26.3594 10.1363 26.6479ZM10.8613 2.74336C14.9975 2.74336 18.3612 6.35441 18.3612 10.8015C18.3875 16.7568 12.8763 22.1043 10.8613 23.8581C8.8476 22.1029 3.33516 16.7541 3.36141 10.7947C3.36141 6.35441 6.72512 2.74336 10.8613 2.74336Z" fill="#FFAF37"/>
</svg>
