<svg width="19" height="20" viewBox="0 0 19 20" fill="none" xmlns="http://www.w3.org/2000/svg">
<mask id="path-1-inside-1_455_1237" fill="white">
<path d="M14.8859 19.6167C14.7094 19.6162 14.5334 19.5948 14.361 19.553C11.0785 18.8043 8.05434 17.0486 5.63673 14.4882C3.27072 11.9221 1.62976 8.65501 0.912396 5.08208C0.82781 4.63679 0.84857 4.17498 0.97268 3.74109C1.09679 3.30721 1.32007 2.91584 1.62105 2.60465L3.72075 0.376127C3.828 0.264289 3.95543 0.178645 4.09472 0.124786C4.23401 0.0709263 4.38204 0.0500622 4.52914 0.0635548C4.68166 0.0811011 4.82885 0.135281 4.96035 0.222283C5.09185 0.309285 5.20447 0.426998 5.29028 0.567144L7.91492 4.84476C8.01334 5.01073 8.06085 5.20717 8.05046 5.40515C8.04006 5.60313 7.97231 5.7922 7.85717 5.94455L6.53961 7.68106C7.06435 8.96171 7.80749 10.1192 8.72855 11.0904C9.64366 12.0969 10.7253 12.9006 11.9149 13.4579L13.5474 12.0281C13.6845 11.9086 13.8513 11.838 14.0257 11.8256C14.2001 11.8132 14.3738 11.8596 14.5237 11.9587L18.4869 14.7834C18.6229 14.8729 18.7388 14.9953 18.8259 15.1412C18.9129 15.2871 18.9689 15.4529 18.9896 15.6261C19.0103 15.7992 18.9952 15.9753 18.9454 16.1412C18.8956 16.307 18.8125 16.4582 18.7022 16.5836L16.6549 18.8179C16.4224 19.0731 16.1464 19.275 15.8428 19.4121C15.5392 19.5492 15.214 19.6187 14.8859 19.6167V19.6167ZM4.44515 1.20965L2.34545 3.43818C2.17613 3.61215 2.0508 3.83172 1.98177 4.0753C1.91274 4.31887 1.90239 4.57807 1.95175 4.82739C2.61879 8.1801 4.15209 11.248 6.36638 13.6605C8.64152 16.0693 11.4874 17.7206 14.5762 18.4243C14.81 18.4782 15.0523 18.4673 15.2814 18.3925C15.5104 18.3178 15.719 18.1815 15.8886 17.996L17.9358 15.7616L14.1091 13.0353L12.3558 14.575C12.2887 14.6336 12.2096 14.6732 12.1254 14.6903C12.0412 14.7075 11.9545 14.7017 11.8729 14.6734C10.4171 14.082 9.09781 13.1431 8.0094 11.9239C6.88362 10.7647 6.00976 9.34002 5.45301 7.75631C5.42946 7.66043 5.42867 7.55949 5.45074 7.46318C5.4728 7.36688 5.51697 7.27845 5.57899 7.20642L6.99629 5.33677L4.44515 1.20965Z"/>
</mask>
<path d="M14.361 19.553L15.5386 14.6937L15.5059 14.6857L15.473 14.6782L14.361 19.553ZM5.63673 14.4882L1.96083 17.8776L1.98092 17.8993L2.00127 17.9209L5.63673 14.4882ZM0.912396 5.08208L-3.99977 6.01517L-3.9949 6.04077L-3.98977 6.06632L0.912396 5.08208ZM1.62105 2.60465L5.21509 6.08069L5.2378 6.05721L5.2602 6.03344L1.62105 2.60465ZM3.72075 0.376127L0.111896 -3.08453L0.0966795 -3.06866L0.0816031 -3.05266L3.72075 0.376127ZM4.52914 0.0635548L5.10056 -4.90369L5.04327 -4.91028L4.98584 -4.91554L4.52914 0.0635548ZM5.29028 0.567144L1.0262 3.1782L1.02855 3.18203L5.29028 0.567144ZM7.91492 4.84476L12.2156 2.29443L12.1964 2.262L12.1766 2.22987L7.91492 4.84476ZM7.85717 5.94455L11.8404 8.96679L11.8461 8.95928L7.85717 5.94455ZM6.53961 7.68106L2.55639 4.65882L0.83007 6.93406L1.91294 9.57683L6.53961 7.68106ZM8.72855 11.0904L12.428 7.72681L12.3927 7.68795L12.3566 7.64985L8.72855 11.0904ZM11.9149 13.4579L9.79364 17.9856L12.7517 19.3714L15.209 17.2193L11.9149 13.4579ZM13.5474 12.0281L10.2624 8.25868L10.2532 8.2667L13.5474 12.0281ZM14.5237 11.9587L17.4258 7.88703L17.3541 7.83594L17.2806 7.7874L14.5237 11.9587ZM18.4869 14.7834L15.5849 18.855L15.6602 18.9087L15.7374 18.9595L18.4869 14.7834ZM18.7022 16.5836L22.3887 19.9614L22.4226 19.9244L22.4557 19.8868L18.7022 16.5836ZM16.6549 18.8179L12.9684 15.4401L12.9594 15.45L16.6549 18.8179ZM4.44515 1.20965L8.6982 -1.41933L5.2731 -6.96029L0.806002 -2.21914L4.44515 1.20965ZM2.34545 3.43818L5.9286 6.92544L5.95683 6.89643L5.98459 6.86697L2.34545 3.43818ZM1.95175 4.82739L-2.95307 5.79834L-2.95214 5.80304L1.95175 4.82739ZM6.36638 13.6605L2.68282 17.0415L2.70692 17.0677L2.73139 17.0937L6.36638 13.6605ZM14.5762 18.4243L15.6994 13.5521L15.6868 13.5492L14.5762 18.4243ZM15.8886 17.996L12.202 14.6181L12.1973 14.6233L15.8886 17.996ZM17.9358 15.7616L21.6223 19.1395L25.4422 14.9704L20.837 11.6894L17.9358 15.7616ZM14.1091 13.0353L17.0103 8.9631L13.7851 6.66537L10.8097 9.27839L14.1091 13.0353ZM12.3558 14.575L15.6435 18.3421L15.6493 18.337L15.6551 18.3319L12.3558 14.575ZM11.8729 14.6734L9.99084 19.3057L10.1131 19.3554L10.2379 19.3985L11.8729 14.6734ZM8.0094 11.9239L11.7393 8.59405L11.6694 8.51584L11.5964 8.44063L8.0094 11.9239ZM5.45301 7.75631L0.597388 8.94918L0.655381 9.18524L0.736001 9.41457L5.45301 7.75631ZM5.57899 7.20642L9.36806 10.4688L9.46956 10.3509L9.56353 10.2269L5.57899 7.20642ZM6.99629 5.33677L10.9808 8.35728L13.0524 5.62461L11.2493 2.70778L6.99629 5.33677ZM14.9013 14.6167C15.1183 14.6174 15.3324 14.6437 15.5386 14.6937L13.1834 24.4124C13.7345 24.5459 14.3005 24.6149 14.8706 24.6167L14.9013 14.6167ZM15.473 14.6782C13.2016 14.1601 11.043 12.9309 9.2722 11.0555L2.00127 17.9209C5.06571 21.1664 8.95529 23.4484 13.249 24.4278L15.473 14.6782ZM9.31264 11.0988C7.59625 9.23734 6.35976 6.81328 5.81457 4.09784L-3.98977 6.06632C-3.10025 10.4967 -1.05481 14.607 1.96083 17.8776L9.31264 11.0988ZM5.82456 4.14899C5.88501 4.46724 5.87146 4.79601 5.77988 5.11616L-3.83452 2.36603C-4.17432 3.55396 -4.22939 4.80633 -3.99977 6.01517L5.82456 4.14899ZM5.77988 5.11616C5.68813 5.43691 5.5094 5.77639 5.21509 6.08069L-1.973 -0.871385C-2.86926 0.0552996 -3.49455 1.17751 -3.83452 2.36603L5.77988 5.11616ZM5.2602 6.03344L7.3599 3.80492L0.0816031 -3.05266L-2.0181 -0.824135L5.2602 6.03344ZM7.32961 3.83679C6.9498 4.23286 6.46715 4.56821 5.89793 4.78831L2.29151 -4.53874C1.44371 -4.21092 0.706194 -3.70428 0.111896 -3.08453L7.32961 3.83679ZM5.89793 4.78831C5.32652 5.00925 4.70161 5.10036 4.07243 5.04265L4.98584 -4.91554C4.06246 -5.00024 3.1415 -4.8674 2.29151 -4.53874L5.89793 4.78831ZM3.95771 5.03079C3.30693 4.95593 2.70785 4.72728 2.20143 4.39222L7.71927 -3.94765C6.94985 -4.45672 6.0564 -4.79373 5.10056 -4.90369L3.95771 5.03079ZM2.20143 4.39222C1.69742 4.05876 1.30559 3.63446 1.0262 3.1782L9.55436 -2.04392C9.10335 -2.78046 8.48628 -3.44019 7.71927 -3.94765L2.20143 4.39222ZM1.02855 3.18203L3.65318 7.45964L12.1766 2.22987L9.55202 -2.04774L1.02855 3.18203ZM3.61424 7.39508C3.19498 6.68808 3.0175 5.90165 3.05734 5.143L13.0436 5.6673C13.1042 4.51268 12.8317 3.33339 12.2156 2.29443L3.61424 7.39508ZM3.05734 5.143C3.09718 4.38413 3.35738 3.60578 3.86827 2.92981L11.8461 8.95928C12.5872 7.97862 12.983 6.82213 13.0436 5.6673L3.05734 5.143ZM3.87395 2.92231L2.55639 4.65882L10.5228 10.7033L11.8404 8.96679L3.87395 2.92231ZM1.91294 9.57683C2.66407 11.41 3.73946 13.0958 5.10054 14.531L12.3566 7.64985C11.8755 7.14259 11.4646 6.51345 11.1663 5.7853L1.91294 9.57683ZM5.02907 14.454C6.37216 15.9312 7.985 17.1383 9.79364 17.9856L14.0361 8.93012C13.4656 8.66285 12.9152 8.26257 12.428 7.72681L5.02907 14.454ZM15.209 17.2193L16.8416 15.7896L10.2532 8.2667L8.62068 9.69643L15.209 17.2193ZM16.8324 15.7976C16.1862 16.3607 15.335 16.7451 14.3806 16.813L13.6709 6.8382C12.3677 6.93091 11.1828 7.45659 10.2624 8.25869L16.8324 15.7976ZM14.3806 16.813C13.4238 16.8811 12.5085 16.6202 11.7669 16.1299L17.2806 7.7874C16.2391 7.09905 14.9765 6.74532 13.6709 6.8382L14.3806 16.813ZM11.6217 16.0303L15.5849 18.855L21.389 10.7118L17.4258 7.88703L11.6217 16.0303ZM15.7374 18.9595C15.2157 18.6161 14.8139 18.1755 14.5317 17.7026L23.12 12.5798C22.6638 11.815 22.0302 11.1298 21.2365 10.6073L15.7374 18.9595ZM14.5317 17.7026C14.2503 17.2307 14.0851 16.7233 14.0249 16.2196L23.9542 15.0325C23.8526 14.1825 23.5755 13.3436 23.12 12.5798L14.5317 17.7026ZM14.0249 16.2196C13.9647 15.7161 14.0073 15.2006 14.1565 14.7037L23.7343 17.5786C23.983 16.7501 24.0558 15.8824 23.9542 15.0325L14.0249 16.2196ZM14.1565 14.7037C14.3058 14.2064 14.5659 13.7153 14.9486 13.2804L22.4557 19.8868C23.059 19.2012 23.4855 18.4076 23.7343 17.5786L14.1565 14.7037ZM15.0156 13.2058L12.9684 15.4401L20.3415 22.1957L22.3887 19.9614L15.0156 13.2058ZM12.9594 15.45C13.1689 15.2201 13.4447 15.0089 13.7851 14.8551L17.9005 23.9691C18.8481 23.5412 19.6759 22.9261 20.3505 22.1858L12.9594 15.45ZM13.7851 14.8551C14.1273 14.7006 14.5136 14.6143 14.9169 14.6168L14.855 24.6166C15.9144 24.6232 16.9511 24.3978 17.9005 23.9691L13.7851 14.8551ZM0.806002 -2.21914L-1.2937 0.00939106L5.98459 6.86697L8.0843 4.63844L0.806002 -2.21914ZM-1.23771 -0.0490826C-2.01139 0.74587 -2.54341 1.70501 -2.82879 2.71201L6.79232 5.43858C6.645 5.95843 6.36365 6.47843 5.9286 6.92544L-1.23771 -0.0490826ZM-2.82879 2.71201C-3.11399 3.7184 -3.15514 4.77757 -2.95307 5.79834L6.85657 3.85644C6.95993 4.37856 6.93947 4.91935 6.79232 5.43858L-2.82879 2.71201ZM-2.95214 5.80304C-2.11457 10.0129 -0.178787 13.9238 2.68282 17.0415L10.0499 10.2794C8.48298 8.57225 7.35214 6.34732 6.85564 3.85174L-2.95214 5.80304ZM2.73139 17.0937C5.65363 20.1877 9.36529 22.3653 13.4657 23.2994L15.6868 13.5492C13.6094 13.076 11.6294 11.951 10.0014 10.2273L2.73139 17.0937ZM13.453 23.2965C14.5765 23.5555 15.7434 23.5013 16.8328 23.1457L13.7299 13.6393C14.3613 13.4332 15.0436 13.4009 15.6994 13.5521L13.453 23.2965ZM16.8328 23.1457C17.9184 22.7914 18.8543 22.1626 19.5798 21.3686L12.1973 14.6233C12.5837 14.2004 13.1024 13.8441 13.7299 13.6393L16.8328 23.1457ZM19.5751 21.3738L21.6223 19.1395L14.2493 12.3838L12.202 14.6181L19.5751 21.3738ZM20.837 11.6894L17.0103 8.9631L11.2078 17.1075L15.0345 19.8338L20.837 11.6894ZM10.8097 9.27839L9.05647 10.8181L15.6551 18.3319L17.4084 16.7922L10.8097 9.27839ZM9.0681 10.8079C9.62803 10.3192 10.3308 9.95327 11.1271 9.79101L13.1237 19.5897C14.0883 19.3931 14.9493 18.948 15.6435 18.3421L9.0681 10.8079ZM11.1271 9.79101C11.9261 9.62822 12.7486 9.68559 13.5079 9.9483L10.2379 19.3985C11.1604 19.7178 12.1564 19.7868 13.1237 19.5897L11.1271 9.79101ZM13.7549 10.0411C13.035 9.74868 12.3402 9.26719 11.7393 8.59405L4.27955 15.2538C5.85542 17.019 7.79915 18.4153 9.99084 19.3057L13.7549 10.0411ZM11.5964 8.44063C10.9947 7.82101 10.4962 7.02599 10.17 6.09805L0.736001 9.41457C1.52329 11.654 2.77255 13.7083 4.42241 15.4073L11.5964 8.44063ZM10.3086 6.56345C10.4714 7.22601 10.4765 7.91598 10.3245 8.57976L0.577008 6.3466C0.380805 7.203 0.387511 8.09486 0.597388 8.94918L10.3086 6.56345ZM10.3245 8.57976C10.1723 9.24396 9.85797 9.89977 9.36806 10.4688L1.78992 3.94406C1.17597 4.65714 0.773306 5.48979 0.577008 6.3466L10.3245 8.57976ZM9.56353 10.2269L10.9808 8.35728L3.01176 2.31626L1.59446 4.1859L9.56353 10.2269ZM11.2493 2.70778L8.6982 -1.41933L0.192103 3.83864L2.74325 7.96576L11.2493 2.70778Z" fill="#FFAF37" mask="url(#path-1-inside-1_455_1237)"/>
</svg>
